<svg width="24" height="24" viewBox="0 0 24 24" fill="none" xmlns="http://www.w3.org/2000/svg">
<path fill-rule="evenodd" clip-rule="evenodd" d="M12 13.5C11.173 13.5 10.5 12.827 10.5 12C10.5 11.9869 10.5031 11.9741 10.5061 11.9613L10.5061 11.9613C10.5088 11.9496 10.5116 11.9379 10.512 11.926L12.074 13.488C12.0621 13.4885 12.0504 13.4913 12.0388 13.494L12.0388 13.494L12.0387 13.494C12.0259 13.497 12.0131 13.5 12 13.5ZM4.70705 3.29301C4.31605 2.90201 3.68405 2.90201 3.29305 3.29301C2.90205 3.68401 2.90205 4.31601 3.29305 4.70701L8.92305 10.337C8.64705 10.846 8.50005 11.411 8.50005 12C8.50005 13.93 10.0701 15.5 12 15.5C12.5891 15.5 13.154 15.353 13.663 15.077L19.293 20.707C19.488 20.902 19.744 21 20 21C20.2561 21 20.5121 20.902 20.7071 20.707C21.0981 20.316 21.0981 19.684 20.7071 19.293L4.70705 3.29301ZM12.2198 16.9976C7.91475 17.0976 5.10475 13.4146 4.17275 11.9956C4.62975 11.2816 5.39575 10.2356 6.45575 9.28462L5.04475 7.87262C3.52275 9.26162 2.54675 10.7796 2.13275 11.5026C1.95575 11.8106 1.95575 12.1896 2.13275 12.4976C2.76175 13.5946 6.16175 18.9996 12.0247 18.9996C12.1067 18.9996 12.1888 18.9986 12.2708 18.9966C13.4548 18.9666 14.5268 18.7106 15.4978 18.3266L13.9178 16.7466C13.3828 16.8886 12.8198 16.9826 12.2198 16.9976ZM11.7297 5.00338C17.7047 4.81638 21.2297 10.3904 21.8677 11.5024C22.0437 11.8104 22.0437 12.1894 21.8677 12.4974C21.4527 13.2204 20.4767 14.7384 18.9547 16.1274L17.5437 14.7154C18.6037 13.7644 19.3707 12.7184 19.8267 12.0044C18.8947 10.5854 16.0717 6.89438 11.7807 7.00238C11.1807 7.01738 10.6177 7.11138 10.0817 7.25338L8.50171 5.67338C9.47371 5.28938 10.5447 5.03338 11.7297 5.00338Z" fill="#CDD0D8"/>
<mask id="mask0_812_191" style="mask-type:alpha" maskUnits="userSpaceOnUse" x="2" y="2" width="20" height="19">
<path fill-rule="evenodd" clip-rule="evenodd" d="M12 13.5C11.173 13.5 10.5 12.827 10.5 12C10.5 11.9869 10.5031 11.9741 10.5061 11.9613L10.5061 11.9613C10.5088 11.9496 10.5116 11.9379 10.512 11.926L12.074 13.488C12.0621 13.4885 12.0504 13.4913 12.0388 13.494L12.0388 13.494L12.0387 13.494C12.0259 13.497 12.0131 13.5 12 13.5ZM4.70705 3.29301C4.31605 2.90201 3.68405 2.90201 3.29305 3.29301C2.90205 3.68401 2.90205 4.31601 3.29305 4.70701L8.92305 10.337C8.64705 10.846 8.50005 11.411 8.50005 12C8.50005 13.93 10.0701 15.5 12 15.5C12.5891 15.5 13.154 15.353 13.663 15.077L19.293 20.707C19.488 20.902 19.744 21 20 21C20.2561 21 20.5121 20.902 20.7071 20.707C21.0981 20.316 21.0981 19.684 20.7071 19.293L4.70705 3.29301ZM12.2198 16.9976C7.91475 17.0976 5.10475 13.4146 4.17275 11.9956C4.62975 11.2816 5.39575 10.2356 6.45575 9.28462L5.04475 7.87262C3.52275 9.26162 2.54675 10.7796 2.13275 11.5026C1.95575 11.8106 1.95575 12.1896 2.13275 12.4976C2.76175 13.5946 6.16175 18.9996 12.0247 18.9996C12.1067 18.9996 12.1888 18.9986 12.2708 18.9966C13.4548 18.9666 14.5268 18.7106 15.4978 18.3266L13.9178 16.7466C13.3828 16.8886 12.8198 16.9826 12.2198 16.9976ZM11.7297 5.00338C17.7047 4.81638 21.2297 10.3904 21.8677 11.5024C22.0437 11.8104 22.0437 12.1894 21.8677 12.4974C21.4527 13.2204 20.4767 14.7384 18.9547 16.1274L17.5437 14.7154C18.6037 13.7644 19.3707 12.7184 19.8267 12.0044C18.8947 10.5854 16.0717 6.89438 11.7807 7.00238C11.1807 7.01738 10.6177 7.11138 10.0817 7.25338L8.50171 5.67338C9.47371 5.28938 10.5447 5.03338 11.7297 5.00338Z" fill="white"/>
</mask>
<g mask="url(#mask0_812_191)">
<rect width="24" height="15.7104" fill="#CDD0D8"/>
</g>
</svg>
